<svg width="5586" height="6479" xmlns="http://www.w3.org/2000/svg" xmlns:xlink="http://www.w3.org/1999/xlink" xml:space="preserve" overflow="hidden"><defs><clipPath id="clip0"><rect x="974" y="658" width="5586" height="6479"/></clipPath></defs><g clip-path="url(#clip0)" transform="translate(-974 -658)"><path d="M3898.56 3897 3899 3897.5 3898.56 3898 3898 3897.5 3898.56 3897Z" fill="#FFFFFF" fill-rule="evenodd"/><path d="M1233.24 2695 2566 3296.18 2551.27 3328.74C2477.27 3503.56 2436.35 3695.75 2436.35 3897.5 2436.35 4099.25 2477.27 4291.44 2551.27 4466.26L2566 4498.82 1233.24 5100 1203.84 5035.01C1055.84 4685.39 974 4300.99 974 3897.5 974 3494.01 1055.84 3109.61 1203.84 2759.99L1233.24 2695Z" fill="#FFFFFF" fill-rule="evenodd"/><path d="M3900 3897 3898.21 3898 3898 3897.88 3900 3897Z" fill="#FFFFFF" fill-rule="evenodd"/><path d="M3898.21 3898 3900 3899 3898 3898.12 3898.21 3898Z" fill="#FFFFFF" fill-rule="evenodd"/><path d="M5228.75 4501 6560 5104.86 6532.9 5164.82C6385.34 5471.08 6185.98 5747.68 5946.19 5983.25L5848.33 6073 4875 4983.16 4921.85 4940.19C5041.74 4822.41 5141.42 4684.11 5215.2 4530.98L5228.75 4501Z" fill="#FFFFFF" fill-rule="evenodd"/><path d="M2629.36 4624 2647.66 4655.83C2903.98 5077.66 3367.85 5359.44 3897.53 5359.44 4187.6 5359.44 4457.92 5274.94 4685.24 5129.21L4766.95 5072.75 5632 6250.65 5557.17 6304.29C5498.24 6345.01 5437.74 6383.62 5375.78 6420.01L5290.96 6467.75 5290.96 6831.92 5161.67 6890.36C4870.26 7013.61 4557.12 7095.54 4229.59 7128.8L4121.8 7137 4121.8 6812.26 4012.57 6818.6C3974.41 6820.07 3936.06 6820.82 3897.53 6820.82 3831.32 6820.82 3765.62 6818.62 3700.51 6814.28L3673.26 6812.02 3673.26 7137 3565.48 7128.8C3237.95 7095.54 2924.8 7013.61 2633.4 6890.36L2504.1 6831.92 2504.1 6466.37 2442.64 6433.59C2014.21 6187.24 1654.11 5835.44 1397.79 5413.61L1361 5349.62Z" fill="#FFFFFF" fill-rule="evenodd"/><path d="M3673.58 658 3673.58 983.065 3700.83 980.796C3765.95 976.462 3831.66 974.26 3897.88 974.26 3970.4 974.26 4042.31 976.901 4113.51 982.093L4122.18 982.883 4122.18 658 4229.98 666.198C4557.55 699.467 4870.74 781.416 5162.18 904.697L5291.49 963.16 5291.49 1327.38 5299.05 1331.34C5833.96 1624.04 6267.34 2079.13 6532.9 2630.3L6560 2690.25 5228.94 3294 5215.39 3264.03C4979.33 2774.09 4478.08 2436.01 3897.88 2436.01 3368.12 2436.01 2904.19 2717.85 2647.84 3139.78L2629.53 3171.63 1361 2445.82 1397.8 2381.82C1654.15 1959.88 2014.3 1608 2442.79 1361.59L2504.26 1328.8 2504.26 963.16 2633.57 904.697C2925.02 781.416 3238.2 699.467 3565.78 666.198Z" fill="#FFFFFF" fill-rule="evenodd"/></g></svg>