<svg width="4505" height="4601" xmlns="http://www.w3.org/2000/svg" xmlns:xlink="http://www.w3.org/1999/xlink" xml:space="preserve" overflow="hidden"><defs><clipPath id="clip0"><rect x="1645" y="1597" width="4505" height="4601"/></clipPath></defs><g clip-path="url(#clip0)" transform="translate(-1645 -1597)"><path d="M3961.56 3157 3962 3157.5 3961.56 3158 3961 3157.5 3961.56 3157Z" fill="#FFFFFF" fill-rule="evenodd"/><path d="M2677.73 2578 3319 2867.47 3311.91 2883.15C3276.31 2967.32 3256.62 3059.86 3256.62 3157 3256.62 3254.14 3276.31 3346.68 3311.91 3430.86L3319 3446.53 2677.73 3736 2663.59 3704.71C2592.38 3536.37 2553 3351.28 2553 3157 2553 2962.72 2592.38 2777.63 2663.59 2609.29L2677.73 2578Z" fill="#FFFFFF" fill-rule="evenodd" fill-opacity="0.85098"/><path d="M3962 3157 3961.11 3158 3961 3157.88 3962 3157Z" fill="#FFFFFF" fill-rule="evenodd"/><path d="M3961.11 3157 3962 3158 3961 3157.12 3961.11 3157Z" fill="#FFFFFF" fill-rule="evenodd"/><path d="M4601.26 3448 5242 3738.41 5228.95 3767.24C5157.94 3914.53 5061.98 4047.55 4946.57 4160.84L4899.47 4204 4431 3679.88 4453.55 3659.22C4511.25 3602.57 4559.23 3536.06 4594.74 3462.42L4601.26 3448Z" fill="#FFFFFF" fill-rule="evenodd" fill-opacity="0.54902"/><path d="M3852.36 1597 3852.36 1753.71 3865.49 1752.4C3896.84 1750.31 3928.47 1749.25 3960.35 1749.25 3995.27 1749.25 4029.89 1750.52 4064.17 1753.02L4068.34 1753.48 4068.34 1597 4120.24 1600.95C4277.94 1616.96 4428.72 1656.41 4569.04 1715.76L4631.29 1743.91 4631.29 1919.33 4634.93 1921.15C4892.45 2062.06 5101.1 2281.15 5228.95 2546.49L5242 2575.35 4601.18 2866 4594.65 2851.57C4481 2615.71 4239.68 2452.95 3960.35 2452.95 3705.31 2452.95 3481.95 2588.64 3358.53 2791.76L3349.72 2807.09 2739 2457.68 2756.72 2426.86C2880.14 2223.74 3053.52 2054.34 3259.81 1935.72L3289.41 1919.93 3289.41 1743.91 3351.66 1715.76C3491.98 1656.41 3642.76 1616.96 3800.46 1600.95Z" fill="#FFFFFF" fill-rule="evenodd"/><path d="M3349.87 3507 3358.68 3522.33C3482.13 3725.44 3705.54 3861.11 3960.64 3861.11 4100.35 3861.11 4230.54 3820.42 4340.02 3750.26L4379.37 3723.07 4796 4290.23 4759.96 4316.05C4731.58 4335.66 4702.44 4354.25 4672.6 4371.77L4631.75 4393.77 4631.75 4570.1 4569.48 4598.25C4429.13 4657.59 4278.31 4697.04 4120.57 4713.05L4068.66 4717 4068.66 4560.59 3960.64 4564.76C3928.76 4564.76 3897.12 4563.7 3865.76 4561.61L3852.63 4560.3 3852.63 4717 3800.72 4713.05C3642.98 4697.04 3492.16 4657.59 3351.81 4598.25L3289.54 4570.1 3289.54 4394.09 3259.94 4378.31C3053.6 4259.7 2880.17 4090.3 2756.72 3887.2L2739 3856.39Z" fill="#FFFFFF" fill-rule="evenodd" fill-opacity="0.701961"/><path d="M5338.88 5338.33C5298.67 5338.33 5267.14 5353.97 5244.29 5385.23 5221.44 5416.5 5210.02 5460.11 5210.02 5516.07 5210.02 5571.29 5221.44 5614.44 5244.29 5645.53 5267.14 5676.61 5298.67 5692.16 5338.88 5692.16 5379.46 5692.16 5411.08 5676.61 5433.74 5645.53 5456.41 5614.44 5467.74 5571.11 5467.74 5515.52 5467.74 5459.56 5456.32 5416.05 5433.47 5384.96 5410.62 5353.88 5379.09 5338.33 5338.88 5338.33ZM2368.82 5293.9C2317.64 5293.9 2278.07 5313.19 2250.11 5351.77 2222.14 5390.35 2208.16 5445.12 2208.16 5516.07 2208.16 5585.92 2222.23 5640.13 2250.38 5678.72 2278.53 5717.3 2318.01 5736.59 2368.82 5736.59 2419.27 5736.59 2458.66 5717.02 2486.99 5677.89 2515.32 5638.76 2529.49 5584.45 2529.49 5514.97 2529.49 5445.12 2515.32 5390.81 2486.99 5352.05 2458.66 5313.28 2419.27 5293.9 2368.82 5293.9ZM4874.35 5235.2 4997.18 5235.2 4997.18 5795.83 4874.35 5795.83ZM3805.46 5235.2 3928.29 5235.2 3928.29 5552.27C3928.29 5599.81 3937.15 5635.01 3954.88 5657.87 3972.61 5680.73 3999.39 5692.16 4035.22 5692.16 4074.33 5692.16 4103.39 5680.73 4122.4 5657.87 4141.41 5635.01 4150.92 5600.55 4150.92 5554.47L4150.92 5235.2 4274.3 5235.2 4274.3 5795.83 4150.92 5795.83 4150.92 5743.17C4133.74 5765.11 4112.99 5781.57 4088.68 5792.54 4064.37 5803.51 4036.31 5809 4004.51 5809 3939.8 5809 3890.45 5789.25 3856.46 5749.75 3822.46 5710.26 3805.46 5652.48 3805.46 5576.41ZM2716.55 5235.2 2793.32 5235.2 2793.32 5795.83 2716.55 5795.83ZM5952.05 5222.04C6016.75 5222.04 6065.92 5241.79 6099.55 5281.28 6133.18 5320.78 6150 5378.74 6150 5455.18L6150 5795.83 6026.62 5795.83 6026.62 5477.67C6026.62 5430.86 6017.76 5395.93 6000.03 5372.89 5982.3 5349.85 5955.52 5338.33 5919.69 5338.33 5880.94 5338.33 5851.97 5349.67 5832.78 5372.34 5813.59 5395.02 5803.99 5429.39 5803.99 5475.47L5803.99 5795.83 5681.16 5795.83 5681.16 5235.2 5803.99 5235.2 5803.99 5290.06C5821.54 5267.02 5842.65 5249.92 5867.33 5238.77 5892 5227.61 5920.24 5222.04 5952.05 5222.04ZM5338.88 5222.04C5390.79 5222.04 5435.57 5233.92 5473.22 5257.69 5510.88 5281.46 5539.94 5315.29 5560.41 5359.18 5580.88 5403.06 5591.12 5455.18 5591.12 5515.52 5591.12 5575.86 5580.88 5627.97 5560.41 5671.86 5539.94 5715.74 5510.88 5749.57 5473.22 5773.34 5435.57 5797.11 5390.79 5809 5338.88 5809 5260.65 5809 5199.05 5782.85 5154.09 5730.56 5109.12 5678.26 5086.64 5606.76 5086.64 5516.07 5086.64 5455.73 5096.88 5403.61 5117.35 5359.73 5137.82 5315.84 5166.97 5281.92 5204.81 5257.97 5242.65 5234.01 5287.33 5222.04 5338.88 5222.04ZM4567.02 5222.04C4606.87 5222.04 4643.7 5229.63 4677.51 5244.8 4711.33 5259.98 4740.48 5281.83 4764.97 5310.36L4683.27 5377.83C4650 5343.82 4610.52 5326.81 4564.83 5326.81 4540.33 5326.81 4520.78 5331.48 4506.15 5340.8 4491.53 5350.13 4484.22 5362.47 4484.22 5377.83 4484.22 5393.19 4492.72 5406.81 4509.72 5418.7 4526.72 5430.58 4558.06 5444.39 4603.76 5460.11 4645.43 5474.01 4679.52 5489.55 4706.03 5506.74 4732.53 5523.93 4751.9 5543.68 4764.15 5565.99 4776.4 5588.29 4782.52 5614.08 4782.52 5643.33 4782.52 5694.9 4763.78 5735.4 4726.31 5764.84 4688.84 5794.28 4637.39 5809 4571.95 5809 4529.92 5809 4489.52 5799.95 4450.77 5781.85 4412.02 5763.74 4380.95 5739.52 4357.55 5709.16L4439.8 5638.95C4459.18 5659.06 4480.93 5674.97 4505.06 5686.67 4529.18 5698.37 4552.76 5704.22 4575.79 5704.22 4605.04 5704.22 4627.7 5699.01 4643.79 5688.59 4659.87 5678.17 4667.92 5663.45 4667.92 5644.43 4667.92 5632.73 4664.26 5622.03 4656.95 5612.34 4649.64 5602.65 4636.84 5593.05 4618.56 5583.54 4600.29 5574.03 4575.06 5563.24 4542.89 5551.17 4480.02 5528.14 4435.42 5503.18 4409.1 5476.3 4382.78 5449.42 4369.61 5415.68 4369.61 5375.09 4369.61 5329.37 4387.89 5292.44 4424.45 5264.28 4461.01 5236.12 4508.53 5222.04 4567.02 5222.04ZM3163.04 5222.04C3228.48 5222.04 3277.1 5242.24 3308.9 5282.65 3340.71 5323.06 3356.61 5384.41 3356.61 5466.7L3356.61 5795.83 3279.84 5795.83 3279.84 5452.98C3279.84 5400.69 3268.87 5360.92 3246.94 5333.67 3225.01 5306.42 3193.2 5292.8 3151.53 5292.8 3105.47 5292.8 3070.55 5306.88 3046.79 5335.04 3023.03 5363.2 3011.15 5404.71 3011.15 5459.56L3011.15 5795.83 2934.38 5795.83 2934.38 5235.2 3011.15 5235.2 3011.15 5307.06C3026.87 5279.64 3047.8 5258.61 3073.94 5243.98 3100.07 5229.35 3129.78 5222.04 3163.04 5222.04ZM2368.82 5222.04C2418.17 5222.04 2460.76 5233.83 2496.59 5257.42 2532.41 5281.01 2559.92 5314.74 2579.11 5358.63 2598.31 5402.51 2607.9 5454.63 2607.9 5514.97 2607.9 5575.31 2598.22 5627.52 2578.84 5671.58 2559.47 5715.65 2531.86 5749.57 2496.04 5773.34 2460.21 5797.11 2417.81 5809 2368.82 5809 2294.98 5809 2236.67 5782.76 2193.9 5730.28 2151.13 5677.8 2129.74 5606.4 2129.74 5516.07 2129.74 5455.73 2139.43 5403.61 2158.81 5359.73 2178.18 5315.84 2205.78 5281.92 2241.61 5257.97 2277.43 5234.01 2319.84 5222.04 2368.82 5222.04ZM1872.56 5222.04C1917.53 5222.04 1956 5232.92 1987.99 5254.68 2019.98 5276.44 2043.28 5307.61 2057.9 5348.21L1984.97 5375.09C1975.47 5349.12 1961.03 5329.19 1941.66 5315.29 1922.28 5301.4 1899.62 5294.45 1873.66 5294.45 1825.04 5294.45 1788.03 5313.28 1762.62 5350.95 1737.21 5388.62 1724.51 5443.66 1724.51 5516.07 1724.51 5585.55 1737.12 5639.59 1762.35 5678.17 1787.57 5716.75 1823.03 5736.04 1868.73 5736.04 1898.7 5736.04 1924.47 5728 1946.04 5711.9 1967.61 5695.81 1982.6 5673.87 1991.01 5646.08L2063.39 5670.21C2050.59 5714.1 2026.92 5748.2 1992.38 5772.52 1957.83 5796.84 1916.07 5809 1867.08 5809 1821.02 5809 1781.36 5797.21 1748.09 5773.62 1714.82 5750.03 1689.32 5716.38 1671.59 5672.68 1653.86 5628.98 1645 5576.77 1645 5516.07 1645 5454.99 1654.14 5402.51 1672.42 5358.63 1690.7 5314.74 1716.83 5281.01 1750.83 5257.42 1784.83 5233.83 1825.41 5222.04 1872.56 5222.04ZM2754.38 5020.17C2769.01 5020.17 2781.16 5025.19 2790.85 5035.25 2800.54 5045.31 2805.38 5057.65 2805.38 5072.28 2805.38 5086.18 2800.54 5098.06 2790.85 5107.94 2781.16 5117.81 2769.01 5122.75 2754.38 5122.75 2740.49 5122.75 2728.7 5117.81 2719.02 5107.94 2709.33 5098.06 2704.49 5086.18 2704.49 5072.28 2704.49 5057.65 2709.33 5045.31 2719.02 5035.25 2728.7 5025.19 2740.49 5020.17 2754.38 5020.17ZM3643.21 5014.68C3665.51 5014.68 3686.08 5016.87 3704.9 5021.26 3723.73 5025.65 3741.92 5032.6 3759.46 5042.11L3759.46 5143.04C3744.11 5136.46 3729.94 5131.52 3716.97 5128.23 3703.99 5124.94 3691.47 5123.3 3679.41 5123.3 3664.05 5123.3 3652.72 5126.95 3645.41 5134.27 3638.1 5141.58 3634.44 5153.47 3634.44 5169.92L3634.44 5235.2 3759.46 5235.2 3759.46 5343.27 3634.44 5343.27 3634.44 5795.83 3511.61 5795.83 3511.61 5343.27 3430.46 5343.27 3430.46 5235.2 3511.61 5235.2 3511.61 5146.33C3511.61 5103.91 3522.94 5071.36 3545.61 5048.69 3568.27 5026.02 3600.81 5014.68 3643.21 5014.68ZM4935.22 5007C4956.42 5007 4974.06 5014.13 4988.13 5028.39 5002.21 5042.66 5009.25 5060.21 5009.25 5081.06 5009.25 5101.54 5002.12 5118.82 4987.86 5132.9 4973.6 5146.98 4956.06 5154.01 4935.22 5154.01 4915.11 5154.01 4897.93 5146.88 4883.67 5132.62 4869.42 5118.36 4862.29 5101.17 4862.29 5081.06 4862.29 5060.58 4869.33 5043.11 4883.4 5028.67 4897.47 5014.22 4914.75 5007 4935.22 5007Z" fill="#FFFFFF" fill-rule="evenodd"/><path d="M2758.99 5983.2C2750.85 5983.2 2742.74 5985.68 2734.66 5990.62 2726.57 5995.57 2720.39 6001.89 2716.1 6009.58L2716.1 6089.53C2720.83 6097.66 2727.04 6104.15 2734.74 6108.98 2742.44 6113.82 2750.69 6116.24 2759.49 6116.24 2774.12 6116.24 2785.39 6110.44 2793.31 6098.84 2801.23 6087.25 2805.19 6070.85 2805.19 6049.64 2805.19 6027.99 2801.26 6011.5 2793.39 6000.18 2785.53 5988.86 2774.06 5983.2 2758.99 5983.2ZM2906.79 5965.57 2929.89 5965.57 2974.11 6086.4C2975.21 6089.26 2976.17 6091.95 2976.99 6094.48 2977.82 6097 2978.67 6099.75 2979.55 6102.72 2980.43 6099.75 2981.31 6097 2982.19 6094.48 2983.07 6091.95 2984.01 6089.26 2985 6086.4L3029.71 5965.57 3053.3 5965.57 2966.35 6198 2943.09 6198 2968.5 6129.92ZM3919.8 5925.01 3919.8 6018.81 3981.01 6018.81C3993.33 6018.81 4003.12 6016.42 4010.37 6011.64 4017.63 6006.86 4022.8 6000.87 4025.88 5993.67 4028.96 5986.47 4030.5 5979.25 4030.5 5971.99 4030.5 5964.96 4029.1 5957.82 4026.3 5950.56 4023.49 5943.31 4018.49 5937.24 4011.28 5932.35 4004.08 5927.46 3993.99 5925.01 3981.01 5925.01ZM4882.21 5924.68 4882.21 6010.57 4946.72 6010.57C4958.49 6010.57 4967.78 6008.43 4974.6 6004.14 4981.42 5999.85 4986.29 5994.41 4989.2 5987.82 4992.12 5981.23 4993.57 5974.47 4993.57 5967.54 4993.57 5961.39 4992.23 5954.99 4989.53 5948.34 4986.84 5941.69 4982.11 5936.09 4975.34 5931.52 4968.58 5926.96 4959.04 5924.68 4946.72 5924.68ZM3524.52 5924.68 3524.52 6010.57 3589.03 6010.57C3600.8 6010.57 3610.09 6008.43 3616.91 6004.14 3623.73 5999.85 3628.6 5994.41 3631.51 5987.82 3634.43 5981.23 3635.89 5974.47 3635.89 5967.54 3635.89 5961.39 3634.54 5954.99 3631.84 5948.34 3629.15 5941.69 3624.42 5936.09 3617.66 5931.52 3610.89 5926.96 3601.35 5924.68 3589.03 5924.68ZM4859.11 5903.25 4946.22 5903.25C4964.15 5903.25 4978.26 5906.36 4988.54 5912.57 4998.82 5918.78 5006.14 5926.77 5010.48 5936.55 5014.83 5946.33 5017 5956.5 5017 5967.05 5017 5976.61 5015.1 5985.84 5011.31 5994.74 5007.51 6003.65 5001.49 6011.31 4993.24 6017.74 4984.99 6024.17 4974.21 6028.48 4960.91 6030.68L5011.72 6134.04 4985.65 6134.04 4936.49 6032 4882.21 6032 4882.21 6134.04 4859.11 6134.04ZM4618.51 5903.25 4750.17 5903.25 4750.17 5924.85 4641.61 5924.85 4641.61 6003.81 4713.7 6003.81 4713.7 6025.4 4641.61 6025.4 4641.61 6112.11 4757.42 6112.11 4757.42 6134.04 4618.51 6134.04ZM4370.26 5903.25 4521.55 5903.25 4521.55 5925.51 4457.37 5925.51 4457.37 6134.04 4434.27 6134.04 4434.27 5925.51 4370.26 5925.51ZM3896.7 5903.25 3979.69 5903.25C3998.28 5903.25 4012.96 5906.61 4023.74 5913.31 4034.52 5920.01 4042.19 5928.64 4046.75 5939.19 4051.32 5949.74 4053.6 5960.68 4053.6 5971.99 4053.6 5979.91 4052.28 5987.88 4049.64 5995.9 4047 6003.92 4042.74 6011.31 4036.85 6018.07 4030.97 6024.83 4023.35 6030.27 4014 6034.39 4004.65 6038.51 3993.22 6040.57 3979.69 6040.57L3919.8 6040.57 3919.8 6134.04 3896.7 6134.04ZM3762.65 5903.25 3785.75 5903.25 3785.75 6134.04 3762.65 6134.04ZM3501.42 5903.25 3588.54 5903.25C3606.46 5903.25 3620.57 5906.36 3630.85 5912.57 3641.14 5918.78 3648.45 5926.77 3652.8 5936.55 3657.14 5946.33 3659.31 5956.5 3659.31 5967.05 3659.31 5976.61 3657.42 5985.84 3653.62 5994.74 3649.83 6003.65 3643.81 6011.31 3635.56 6017.74 3627.31 6024.17 3616.53 6028.48 3603.22 6030.68L3654.04 6134.04 3627.97 6134.04 3578.8 6032 3524.52 6032 3524.52 6134.04 3501.42 6134.04ZM3253.18 5903.25 3404.47 5903.25 3404.47 5925.51 3340.29 5925.51 3340.29 6134.04 3317.19 6134.04 3317.19 5925.51 3253.18 5925.51ZM4206.71 5899.3C4218.04 5899.3 4228.15 5901 4237.06 5904.41 4245.97 5907.81 4253.4 5912.54 4259.34 5918.58 4265.28 5924.63 4269.46 5931.55 4271.87 5939.35L4250.26 5946.61C4247.18 5939.03 4241.82 5932.84 4234.18 5928.06 4226.53 5923.28 4216.83 5920.89 4205.06 5920.89 4191.86 5920.89 4181.49 5923.89 4173.96 5929.88 4166.42 5935.87 4162.65 5944.03 4162.65 5954.36 4162.65 5962.38 4165.13 5969.08 4170.08 5974.47 4175.03 5979.85 4181.49 5984.47 4189.46 5988.31 4197.44 5992.16 4205.88 5995.84 4214.79 5999.36 4222.6 6002.33 4230.49 6005.79 4238.47 6009.74 4246.44 6013.7 4253.73 6018.51 4260.33 6024.17 4266.93 6029.83 4272.26 6036.64 4276.33 6044.61 4280.4 6052.58 4282.43 6062.11 4282.43 6073.21 4282.43 6087.06 4279.27 6098.79 4272.95 6108.41 4266.62 6118.02 4257.96 6125.36 4246.96 6130.41 4235.96 6135.47 4223.42 6138 4209.35 6138 4196.48 6138 4184.82 6135.77 4174.37 6131.32 4163.92 6126.87 4155.04 6120.82 4147.72 6113.19 4140.41 6105.55 4134.99 6097 4131.47 6087.55L4153.75 6079.64C4158.7 6090.52 4166.06 6099.31 4175.85 6106.02 4185.64 6112.72 4197.03 6116.07 4210.01 6116.07 4224.63 6116.07 4236.38 6112.44 4245.23 6105.19 4254.08 6097.94 4258.51 6087.39 4258.51 6073.54 4258.51 6064.2 4255.98 6056.2 4250.92 6049.56 4245.86 6042.91 4239.26 6037.3 4231.12 6032.74 4222.98 6028.18 4214.3 6024.2 4205.06 6020.79 4197.14 6017.82 4189.25 6014.5 4181.38 6010.82 4173.52 6007.13 4166.37 6002.79 4159.93 5997.79 4153.5 5992.79 4148.36 5986.72 4144.51 5979.58 4140.66 5972.43 4138.73 5963.97 4138.73 5954.19 4138.73 5944.08 4141.4 5934.88 4146.73 5926.58 4152.07 5918.28 4159.8 5911.66 4169.91 5906.71 4180.03 5901.77 4192.3 5899.3 4206.71 5899.3ZM2716.1 5896 2716.1 5983.53C2721.49 5976.61 2728.14 5971.23 2736.06 5967.38 2743.98 5963.53 2752.34 5961.61 2761.14 5961.61 2775.11 5961.61 2787.15 5965.18 2797.27 5972.32 2807.39 5979.47 2815.23 5989.63 2820.78 6002.82 2826.34 6016.01 2829.11 6031.61 2829.11 6049.64 2829.11 6077.66 2823.28 6099.39 2811.62 6114.83 2799.97 6130.28 2783.58 6138 2762.46 6138 2753.11 6138 2744.78 6136.26 2737.46 6132.8 2730.15 6129.34 2723.03 6123.87 2716.1 6116.4L2716.1 6134.04 2693 6134.04 2693 5907.04Z" fill="#FFFFFF" fill-rule="evenodd"/></g></svg>