<svg width="6573" height="1975" xmlns="http://www.w3.org/2000/svg" xmlns:xlink="http://www.w3.org/1999/xlink" xml:space="preserve" overflow="hidden"><defs><clipPath id="clip0"><rect x="611" y="988" width="6573" height="1975"/></clipPath></defs><g clip-path="url(#clip0)" transform="translate(-611 -988)"><path d="M689.977 1609 1096 1792.23 1091.51 1802.15C1068.97 1855.43 1056.5 1914.01 1056.5 1975.5 1056.5 2036.99 1068.97 2095.57 1091.51 2148.85L1096 2158.77 689.977 2342 681.019 2322.19C635.932 2215.63 611 2098.48 611 1975.5 611 1852.52 635.932 1735.37 681.019 1628.81L689.977 1609Z" fill="#0E844F" fill-rule="evenodd"/><path d="M1907.7 2159 2313 2343 2304.75 2361.27C2259.82 2454.59 2199.13 2538.87 2126.12 2610.65L2096.33 2638 1800 2305.92 1814.26 2292.83C1850.77 2256.94 1881.11 2214.8 1903.57 2168.14L1907.7 2159Z" fill="#07BD4C" fill-rule="evenodd"/><path d="M1502.1 1975.74 1502.15 1975.76 1502.15 1975.76 1502.56 1976 1502.1 1975.79 1502.1 1975.79 1502.04 1975.76ZM1502.56 1975.53 1502.15 1975.76 1502.1 1975.74ZM1433.58 988 1433.58 1087.25 1441.89 1086.42C1461.73 1085.1 1481.74 1084.42 1501.92 1084.42 1524.02 1084.42 1545.93 1085.23 1567.62 1086.81L1570.26 1087.1 1570.26 988 1603.1 990.499C1702.91 1000.64 1798.33 1025.63 1887.12 1063.22L1926.52 1081.04 1926.52 1192.14 1928.82 1193.29C2091.79 1282.53 2223.83 1421.28 2304.74 1589.33L2313 1607.61 1907.46 1791.69 1903.33 1782.55C1831.41 1633.17 1678.69 1530.09 1501.92 1530.09 1340.52 1530.09 1199.17 1616.03 1121.07 1744.67L1115.49 1754.38 729 1533.09 740.212 1513.57C818.316 1384.93 928.042 1277.64 1058.59 1202.52L1077.32 1192.52 1077.32 1081.04 1116.72 1063.22C1205.52 1025.63 1300.93 1000.64 1400.74 990.499Z" fill="#066E4B" fill-rule="evenodd"/><path d="M1115.65 2197 1121.24 2206.7C1199.37 2335.28 1340.78 2421.17 1502.25 2421.17 1590.68 2421.17 1673.09 2395.42 1742.38 2351L1767.29 2333.79 2031 2692.83 2008.19 2709.18C1990.22 2721.59 1971.78 2733.36 1952.89 2744.45L1927.03 2758.38 1927.03 2870.01 1887.62 2887.82C1798.79 2925.39 1703.33 2950.36 1603.48 2960.5L1570.62 2963 1570.62 2863.99 1502.25 2866.62C1482.07 2866.62 1462.04 2865.95 1442.19 2864.63L1433.89 2863.8 1433.89 2963 1401.03 2960.5C1301.18 2950.36 1205.72 2925.39 1116.89 2887.82L1077.47 2870.01 1077.47 2758.58 1058.73 2748.59C928.128 2673.5 818.355 2566.27 740.217 2437.69L729 2418.18Z" fill="#069D40" fill-rule="evenodd"/><path d="M6373.06 1711.33C6332.86 1711.33 6301.33 1726.97 6278.49 1758.23 6255.65 1789.5 6244.23 1833.11 6244.23 1889.07 6244.23 1944.29 6255.65 1987.44 6278.49 2018.53 6301.33 2049.61 6332.86 2065.16 6373.06 2065.16 6413.63 2065.16 6445.24 2049.61 6467.9 2018.53 6490.56 1987.44 6501.89 1944.11 6501.89 1888.52 6501.89 1832.57 6490.47 1789.05 6467.63 1757.96 6444.79 1726.88 6413.26 1711.33 6373.06 1711.33ZM3403.66 1666.9C3352.5 1666.9 3312.93 1686.19 3284.97 1724.77 3257.01 1763.35 3243.03 1818.12 3243.03 1889.07 3243.03 1958.92 3257.1 2013.13 3285.25 2051.72 3313.39 2090.3 3352.86 2109.59 3403.66 2109.59 3454.1 2109.59 3493.48 2090.02 3521.81 2050.89 3550.13 2011.76 3564.29 1957.45 3564.29 1887.97 3564.29 1818.12 3550.13 1763.81 3521.81 1725.05 3493.48 1686.28 3454.1 1666.9 3403.66 1666.9ZM5908.64 1608.2 6031.44 1608.2 6031.44 2168.83 5908.64 2168.83ZM4839.98 1608.2 4962.78 1608.2 4962.78 1925.27C4962.78 1972.81 4971.65 2008.01 4989.37 2030.87 5007.1 2053.73 5033.87 2065.16 5069.69 2065.16 5108.79 2065.16 5137.85 2053.73 5156.85 2030.87 5175.86 2008.01 5185.36 1973.55 5185.36 1927.47L5185.36 1608.2 5308.71 1608.2 5308.71 2168.83 5185.36 2168.83 5185.36 2116.17C5168.18 2138.11 5147.44 2154.57 5123.14 2165.54 5098.83 2176.51 5070.78 2182 5038.99 2182 4974.29 2182 4924.95 2162.25 4890.96 2122.76 4856.97 2083.26 4839.98 2025.48 4839.98 1949.41ZM3751.31 1608.2 3828.06 1608.2 3828.06 2168.83 3751.31 2168.83ZM6986.09 1595.04C7050.78 1595.04 7099.94 1614.79 7133.56 1654.28 7167.19 1693.78 7184 1751.74 7184 1828.18L7184 2168.83 7060.65 2168.83 7060.65 1850.67C7060.65 1803.86 7051.79 1768.93 7034.06 1745.89 7016.33 1722.85 6989.56 1711.33 6953.75 1711.33 6915 1711.33 6886.04 1722.67 6866.85 1745.34 6847.66 1768.02 6838.07 1802.39 6838.07 1848.47L6838.07 2168.83 6715.27 2168.83 6715.27 1608.2 6838.07 1608.2 6838.07 1663.06C6855.61 1640.02 6876.72 1622.92 6901.39 1611.77 6926.06 1600.61 6954.29 1595.04 6986.09 1595.04ZM6373.06 1595.04C6424.96 1595.04 6469.73 1606.92 6507.37 1630.69 6545.02 1654.46 6574.07 1688.29 6594.54 1732.18 6615.01 1776.06 6625.24 1828.18 6625.24 1888.52 6625.24 1948.86 6615.01 2000.97 6594.54 2044.86 6574.07 2088.74 6545.02 2122.57 6507.37 2146.34 6469.73 2170.11 6424.96 2182 6373.06 2182 6294.85 2182 6233.26 2155.85 6188.31 2103.56 6143.35 2051.26 6120.88 1979.76 6120.88 1889.07 6120.88 1828.73 6131.11 1776.61 6151.58 1732.73 6172.04 1688.84 6201.19 1654.92 6239.02 1630.97 6276.85 1607.01 6321.53 1595.04 6373.06 1595.04ZM5601.37 1595.04C5641.21 1595.04 5678.03 1602.63 5711.84 1617.8 5745.64 1632.98 5774.79 1654.83 5799.28 1683.36L5717.59 1750.83C5684.33 1716.82 5644.86 1699.81 5599.18 1699.81 5574.69 1699.81 5555.14 1704.48 5540.52 1713.8 5525.9 1723.13 5518.59 1735.47 5518.59 1750.83 5518.59 1766.19 5527.09 1779.81 5544.08 1791.7 5561.08 1803.58 5592.42 1817.39 5638.1 1833.11 5679.77 1847.01 5713.85 1862.55 5740.35 1879.74 5766.84 1896.93 5786.21 1916.68 5798.46 1938.99 5810.7 1961.29 5816.82 1987.08 5816.82 2016.33 5816.82 2067.9 5798.09 2108.4 5760.63 2137.84 5723.17 2167.28 5671.73 2182 5606.3 2182 5564.27 2182 5523.89 2172.95 5485.15 2154.85 5446.41 2136.74 5415.34 2112.52 5391.95 2082.16L5474.18 2011.95C5493.55 2032.06 5515.3 2047.97 5539.42 2059.67 5563.54 2071.37 5587.12 2077.22 5610.14 2077.22 5639.38 2077.22 5662.04 2072.01 5678.12 2061.59 5694.2 2051.17 5702.24 2036.45 5702.24 2017.43 5702.24 2005.73 5698.59 1995.03 5691.28 1985.34 5683.97 1975.65 5671.18 1966.05 5652.9 1956.54 5634.63 1947.03 5609.41 1936.24 5577.25 1924.18 5514.39 1901.14 5469.8 1876.18 5443.48 1849.3 5417.17 1822.42 5404.01 1788.68 5404.01 1748.09 5404.01 1702.37 5422.28 1665.44 5458.83 1637.28 5495.38 1609.12 5542.89 1595.04 5601.37 1595.04ZM4197.71 1595.04C4263.13 1595.04 4311.74 1615.24 4343.53 1655.65 4375.33 1696.06 4391.23 1757.41 4391.23 1839.7L4391.23 2168.83 4314.48 2168.83 4314.48 1825.98C4314.48 1773.69 4303.51 1733.91 4281.58 1706.67 4259.65 1679.42 4227.86 1665.8 4186.19 1665.8 4140.14 1665.8 4105.24 1679.88 4081.48 1708.04 4057.73 1736.2 4045.85 1777.71 4045.85 1832.57L4045.85 2168.83 3969.1 2168.83 3969.1 1608.2 4045.85 1608.2 4045.85 1680.06C4061.56 1652.64 4082.49 1631.61 4108.62 1616.98 4134.75 1602.35 4164.45 1595.04 4197.71 1595.04ZM3403.66 1595.04C3453 1595.04 3495.58 1606.83 3531.4 1630.42 3567.22 1654.01 3594.72 1687.74 3613.91 1731.63 3633.09 1775.51 3642.69 1827.63 3642.69 1887.97 3642.69 1948.31 3633 2000.52 3613.63 2044.58 3594.26 2088.65 3566.67 2122.57 3530.85 2146.34 3495.03 2170.11 3452.64 2182 3403.66 2182 3329.84 2182 3271.54 2155.76 3228.78 2103.28 3186.02 2050.8 3164.64 1979.4 3164.64 1889.07 3164.64 1828.73 3174.32 1776.61 3193.69 1732.73 3213.06 1688.84 3240.66 1654.92 3276.47 1630.97 3312.29 1607.01 3354.69 1595.04 3403.66 1595.04ZM2907.51 1595.04C2952.47 1595.04 2990.93 1605.92 3022.91 1627.68 3054.89 1649.44 3078.19 1680.61 3092.81 1721.21L3019.9 1748.09C3010.4 1722.12 2995.96 1702.19 2976.59 1688.29 2957.22 1674.4 2934.56 1667.45 2908.61 1667.45 2860 1667.45 2823 1686.28 2797.59 1723.95 2772.19 1761.62 2759.49 1816.66 2759.49 1889.07 2759.49 1958.55 2772.1 2012.59 2797.32 2051.17 2822.54 2089.75 2857.99 2109.04 2903.68 2109.04 2933.65 2109.04 2959.41 2101 2980.97 2084.9 3002.54 2068.81 3017.52 2046.87 3025.93 2019.08L3098.29 2043.21C3085.5 2087.1 3061.84 2121.2 3027.3 2145.52 2992.76 2169.84 2951.01 2182 2902.03 2182 2855.98 2182 2816.32 2170.21 2783.07 2146.62 2749.81 2123.03 2724.31 2089.38 2706.59 2045.68 2688.86 2001.98 2680 1949.77 2680 1889.07 2680 1827.99 2689.14 1775.51 2707.41 1731.63 2725.69 1687.74 2751.82 1654.01 2785.81 1630.42 2819.8 1606.83 2860.37 1595.04 2907.51 1595.04ZM3789.14 1393.17C3803.76 1393.17 3815.91 1398.19 3825.6 1408.25 3835.28 1418.31 3840.12 1430.65 3840.12 1445.28 3840.12 1459.18 3835.28 1471.06 3825.6 1480.94 3815.91 1490.81 3803.76 1495.75 3789.14 1495.75 3775.25 1495.75 3763.46 1490.81 3753.78 1480.94 3744.09 1471.06 3739.25 1459.18 3739.25 1445.28 3739.25 1430.65 3744.09 1418.31 3753.78 1408.25 3763.46 1398.19 3775.25 1393.17 3789.14 1393.17ZM4677.77 1387.68C4700.06 1387.68 4720.62 1389.87 4739.45 1394.26 4758.27 1398.65 4776.45 1405.6 4793.99 1415.11L4793.99 1516.04C4778.64 1509.46 4764.48 1504.52 4751.51 1501.23 4738.53 1497.94 4726.01 1496.3 4713.95 1496.3 4698.6 1496.3 4687.27 1499.95 4679.96 1507.27 4672.65 1514.58 4669 1526.47 4669 1542.92L4669 1608.2 4793.99 1608.2 4793.99 1716.27 4669 1716.27 4669 2168.83 4546.2 2168.83 4546.2 1716.27 4465.06 1716.27 4465.06 1608.2 4546.2 1608.2 4546.2 1519.34C4546.2 1476.91 4557.53 1444.36 4580.19 1421.69 4602.85 1399.02 4635.37 1387.68 4677.77 1387.68ZM5969.49 1380C5990.69 1380 6008.32 1387.13 6022.39 1401.39 6036.46 1415.66 6043.5 1433.21 6043.5 1454.06 6043.5 1474.54 6036.37 1491.82 6022.12 1505.9 6007.86 1519.97 5990.32 1527.01 5969.49 1527.01 5949.39 1527.01 5932.21 1519.88 5917.96 1505.62 5903.7 1491.36 5896.57 1474.17 5896.57 1454.06 5896.57 1433.58 5903.61 1416.11 5917.68 1401.67 5931.75 1387.22 5949.02 1380 5969.49 1380Z" fill="#262626" fill-rule="evenodd"/><path d="M2745.99 2355.49C2737.85 2355.49 2729.74 2357.97 2721.66 2362.94 2713.57 2367.9 2707.39 2374.24 2703.1 2381.96L2703.1 2462.17C2707.83 2470.33 2714.04 2476.84 2721.74 2481.69 2729.44 2486.54 2737.69 2488.97 2746.49 2488.97 2761.12 2488.97 2772.39 2483.15 2780.31 2471.52 2788.23 2459.88 2792.19 2443.43 2792.19 2422.15 2792.19 2400.42 2788.26 2383.89 2780.39 2372.53 2772.53 2361.17 2761.06 2355.49 2745.99 2355.49ZM2893.79 2337.8 2916.89 2337.8 2961.11 2459.03C2962.21 2461.9 2963.17 2464.6 2963.99 2467.13 2964.82 2469.67 2965.67 2472.43 2966.55 2475.4 2967.43 2472.43 2968.31 2469.67 2969.19 2467.13 2970.07 2464.6 2971.01 2461.9 2972 2459.03L3016.71 2337.8 3040.3 2337.8 2953.35 2571 2930.09 2571 2955.5 2502.69ZM3906.8 2297.11 3906.8 2391.22 3968.01 2391.22C3980.33 2391.22 3990.11 2388.82 3997.37 2384.02 4004.63 2379.23 4009.8 2373.22 4012.88 2366 4015.96 2358.77 4017.5 2351.52 4017.5 2344.25 4017.5 2337.19 4016.1 2330.02 4013.29 2322.75 4010.49 2315.47 4005.49 2309.38 3998.28 2304.47 3991.08 2299.56 3980.99 2297.11 3968.01 2297.11ZM4869.21 2296.78 4869.21 2382.95 4933.72 2382.95C4945.49 2382.95 4954.78 2380.8 4961.6 2376.5 4968.42 2372.2 4973.29 2366.74 4976.2 2360.12 4979.12 2353.51 4980.57 2346.73 4980.57 2339.78 4980.57 2333.61 4979.22 2327.18 4976.53 2320.51 4973.84 2313.84 4969.11 2308.22 4962.34 2303.64 4955.58 2299.07 4946.04 2296.78 4933.72 2296.78ZM3511.52 2296.78 3511.52 2382.95 3576.03 2382.95C3587.8 2382.95 3597.09 2380.8 3603.91 2376.5 3610.73 2372.2 3615.6 2366.74 3618.51 2360.12 3621.43 2353.51 3622.89 2346.73 3622.89 2339.78 3622.89 2333.61 3621.54 2327.18 3618.84 2320.51 3616.15 2313.84 3611.42 2308.22 3604.66 2303.64 3597.89 2299.07 3588.35 2296.78 3576.03 2296.78ZM4846.11 2275.28 4933.22 2275.28C4951.15 2275.28 4965.26 2278.39 4975.54 2284.62 4985.82 2290.85 4993.14 2298.87 4997.48 2308.69 5001.83 2318.5 5004 2328.7 5004 2339.28 5004 2348.88 5002.1 2358.14 4998.31 2367.07 4994.51 2376 4988.49 2383.69 4980.24 2390.14 4971.99 2396.59 4961.21 2400.92 4947.91 2403.13L4998.72 2506.83 4972.65 2506.83 4923.49 2404.45 4869.21 2404.45 4869.21 2506.83 4846.11 2506.83ZM4605.51 2275.28 4737.17 2275.28 4737.17 2296.94 4628.6 2296.94 4628.6 2376.17 4700.7 2376.17 4700.7 2397.83 4628.6 2397.83 4628.6 2484.83 4744.42 2484.83 4744.42 2506.83 4605.51 2506.83ZM4357.26 2275.28 4508.55 2275.28 4508.55 2297.61 4444.37 2297.61 4444.37 2506.83 4421.27 2506.83 4421.27 2297.61 4357.26 2297.61ZM3883.7 2275.28 3966.69 2275.28C3985.27 2275.28 3999.96 2278.64 4010.74 2285.37 4021.52 2292.09 4029.19 2300.75 4033.75 2311.33 4038.32 2321.92 4040.6 2332.89 4040.6 2344.25 4040.6 2352.19 4039.28 2360.18 4036.64 2368.23 4034 2376.28 4029.74 2383.69 4023.85 2390.47 4017.97 2397.25 4010.35 2402.71 4001 2406.85 3991.65 2410.98 3980.22 2413.05 3966.69 2413.05L3906.8 2413.05 3906.8 2506.83 3883.7 2506.83ZM3749.65 2275.28 3772.75 2275.28 3772.75 2506.83 3749.65 2506.83ZM3488.42 2275.28 3575.54 2275.28C3593.46 2275.28 3607.57 2278.39 3617.85 2284.62 3628.14 2290.85 3635.45 2298.87 3639.8 2308.69 3644.14 2318.5 3646.31 2328.7 3646.31 2339.28 3646.31 2348.88 3644.42 2358.14 3640.62 2367.07 3636.83 2376 3630.81 2383.69 3622.56 2390.14 3614.31 2396.59 3603.53 2400.92 3590.22 2403.13L3641.03 2506.83 3614.97 2506.83 3565.8 2404.45 3511.52 2404.45 3511.52 2506.83 3488.42 2506.83ZM3240.18 2275.28 3391.47 2275.28 3391.47 2297.61 3327.29 2297.61 3327.29 2506.83 3304.19 2506.83 3304.19 2297.61 3240.18 2297.61ZM4193.71 2271.31C4205.03 2271.31 4215.15 2273.02 4224.06 2276.44 4232.97 2279.85 4240.4 2284.59 4246.34 2290.66 4252.27 2296.72 4256.46 2303.67 4258.87 2311.5L4237.26 2318.78C4234.18 2311.17 4228.82 2304.97 4221.18 2300.17 4213.53 2295.37 4203.82 2292.97 4192.06 2292.97 4178.86 2292.97 4168.49 2295.98 4160.96 2301.99 4153.42 2308 4149.65 2316.18 4149.65 2326.55 4149.65 2334.6 4152.13 2341.32 4157.08 2346.73 4162.03 2352.13 4168.49 2356.76 4176.46 2360.62 4184.44 2364.48 4192.88 2368.17 4201.79 2371.7 4209.6 2374.68 4217.49 2378.15 4225.47 2382.12 4233.44 2386.09 4240.73 2390.91 4247.33 2396.59 4253.92 2402.27 4259.26 2409.11 4263.33 2417.1 4267.4 2425.1 4269.43 2434.66 4269.43 2445.8 4269.43 2459.69 4266.27 2471.46 4259.95 2481.11 4253.62 2490.76 4244.96 2498.12 4233.96 2503.19 4222.96 2508.26 4210.42 2510.8 4196.35 2510.8 4183.48 2510.8 4171.82 2508.56 4161.37 2504.1 4150.92 2499.63 4142.04 2493.57 4134.72 2485.91 4127.41 2478.24 4121.99 2469.67 4118.47 2460.19L4140.75 2452.25C4145.7 2463.16 4153.06 2471.98 4162.85 2478.71 4172.64 2485.44 4184.03 2488.8 4197 2488.8 4211.63 2488.8 4223.38 2485.16 4232.23 2477.88 4241.08 2470.61 4245.51 2460.02 4245.51 2446.13 4245.51 2436.76 4242.98 2428.73 4237.92 2422.06 4232.86 2415.39 4226.26 2409.77 4218.12 2405.19 4209.98 2400.62 4201.29 2396.62 4192.06 2393.2 4184.14 2390.23 4176.25 2386.89 4168.38 2383.2 4160.52 2379.5 4153.37 2375.15 4146.93 2370.13 4140.5 2365.11 4135.36 2359.02 4131.51 2351.85 4127.66 2344.69 4125.73 2336.2 4125.73 2326.38 4125.73 2316.24 4128.4 2307.01 4133.73 2298.68 4139.07 2290.36 4146.8 2283.71 4156.91 2278.75 4167.03 2273.79 4179.3 2271.31 4193.71 2271.31ZM2703.1 2268 2703.1 2355.82C2708.49 2348.88 2715.14 2343.47 2723.06 2339.62 2730.98 2335.76 2739.34 2333.83 2748.14 2333.83 2762.11 2333.83 2774.15 2337.41 2784.27 2344.58 2794.39 2351.74 2802.23 2361.94 2807.78 2375.17 2813.33 2388.41 2816.11 2404.06 2816.11 2422.15 2816.11 2450.26 2810.28 2472.07 2798.62 2487.56 2786.96 2503.05 2770.58 2510.8 2749.46 2510.8 2740.11 2510.8 2731.78 2509.06 2724.46 2505.59 2717.15 2502.11 2710.03 2496.63 2703.1 2489.13L2703.1 2506.83 2680 2506.83 2680 2279.08Z" fill="#066E4B" fill-rule="evenodd"/></g></svg>