<svg width="6573" height="1975" xmlns="http://www.w3.org/2000/svg" xmlns:xlink="http://www.w3.org/1999/xlink" xml:space="preserve" overflow="hidden"><defs><clipPath id="clip0"><rect x="611" y="4859" width="6573" height="1975"/></clipPath></defs><g clip-path="url(#clip0)" transform="translate(-611 -4859)"><path d="M689.977 5480 1096 5663.23 1091.51 5673.15C1068.97 5726.43 1056.5 5785.01 1056.5 5846.5 1056.5 5907.99 1068.97 5966.57 1091.51 6019.85L1096 6029.77 689.977 6213 681.019 6193.19C635.932 6086.63 611 5969.48 611 5846.5 611 5723.52 635.932 5606.37 681.019 5499.81L689.977 5480Z" fill="#FFFFFF" fill-rule="evenodd" fill-opacity="0.85098"/><path d="M1907.7 6030 2313 6214 2304.75 6232.27C2259.82 6325.59 2199.13 6409.87 2126.12 6481.65L2096.33 6509 1800 6176.92 1814.26 6163.83C1850.77 6127.94 1881.11 6085.79 1903.57 6039.13L1907.7 6030Z" fill="#FFFFFF" fill-rule="evenodd" fill-opacity="0.54902"/><path d="M1502.1 5846.74 1502.15 5846.76 1502.15 5846.76 1502.56 5847 1502.1 5846.79 1502.1 5846.79 1502.04 5846.76ZM1502.56 5846.53 1502.15 5846.76 1502.1 5846.74ZM1433.58 4859 1433.58 4958.25 1441.89 4957.42C1461.73 4956.1 1481.74 4955.42 1501.92 4955.42 1524.02 4955.42 1545.93 4956.23 1567.62 4957.81L1570.26 4958.1 1570.26 4859 1603.1 4861.5C1702.91 4871.64 1798.33 4896.63 1887.12 4934.22L1926.52 4952.04 1926.52 5063.14 1928.82 5064.29C2091.79 5153.53 2223.83 5292.28 2304.74 5460.33L2313 5478.61 1907.46 5662.69 1903.33 5653.55C1831.41 5504.17 1678.69 5401.09 1501.92 5401.09 1340.52 5401.09 1199.17 5487.03 1121.07 5615.67L1115.49 5625.38 729 5404.09 740.212 5384.57C818.316 5255.93 928.042 5148.64 1058.59 5073.52L1077.32 5063.52 1077.32 4952.04 1116.72 4934.22C1205.52 4896.63 1300.93 4871.64 1400.74 4861.5Z" fill="#FFFFFF" fill-rule="evenodd"/><path d="M1115.65 6068 1121.24 6077.7C1199.37 6206.28 1340.78 6292.17 1502.25 6292.17 1590.68 6292.17 1673.09 6266.42 1742.38 6222L1767.29 6204.79 2031 6563.83 2008.19 6580.18C1990.22 6592.59 1971.78 6604.36 1952.89 6615.45L1927.03 6629.38 1927.03 6741.01 1887.62 6758.82C1798.79 6796.39 1703.33 6821.36 1603.48 6831.5L1570.62 6834 1570.62 6734.99 1502.25 6737.62C1482.07 6737.62 1462.04 6736.95 1442.19 6735.63L1433.89 6734.8 1433.89 6834 1401.03 6831.5C1301.18 6821.36 1205.72 6796.39 1116.89 6758.82L1077.47 6741.01 1077.47 6629.58 1058.73 6619.59C928.128 6544.5 818.355 6437.27 740.217 6308.69L729 6289.18Z" fill="#FFFFFF" fill-rule="evenodd" fill-opacity="0.701961"/><path d="M6373.06 5582.33C6332.86 5582.33 6301.33 5597.97 6278.49 5629.23 6255.65 5660.5 6244.23 5704.11 6244.23 5760.07 6244.23 5815.29 6255.65 5858.44 6278.49 5889.53 6301.33 5920.61 6332.86 5936.16 6373.06 5936.16 6413.63 5936.16 6445.24 5920.61 6467.9 5889.53 6490.56 5858.44 6501.89 5815.11 6501.89 5759.52 6501.89 5703.56 6490.47 5660.05 6467.63 5628.96 6444.79 5597.88 6413.26 5582.33 6373.06 5582.33ZM3403.66 5537.9C3352.5 5537.9 3312.93 5557.19 3284.97 5595.77 3257.01 5634.35 3243.03 5689.12 3243.03 5760.07 3243.03 5829.92 3257.1 5884.13 3285.25 5922.72 3313.39 5961.3 3352.86 5980.59 3403.66 5980.59 3454.1 5980.59 3493.48 5961.02 3521.81 5921.89 3550.13 5882.76 3564.29 5828.45 3564.29 5758.97 3564.29 5689.12 3550.13 5634.81 3521.81 5596.05 3493.48 5557.28 3454.1 5537.9 3403.66 5537.9ZM5908.64 5479.2 6031.44 5479.2 6031.44 6039.83 5908.64 6039.83ZM4839.98 5479.2 4962.78 5479.2 4962.78 5796.27C4962.78 5843.81 4971.65 5879.01 4989.37 5901.87 5007.1 5924.73 5033.87 5936.16 5069.69 5936.16 5108.79 5936.16 5137.85 5924.73 5156.85 5901.87 5175.86 5879.01 5185.36 5844.55 5185.36 5798.47L5185.36 5479.2 5308.71 5479.2 5308.71 6039.83 5185.36 6039.83 5185.36 5987.17C5168.18 6009.11 5147.44 6025.57 5123.14 6036.54 5098.83 6047.51 5070.78 6053 5038.99 6053 4974.29 6053 4924.95 6033.25 4890.96 5993.75 4856.97 5954.26 4839.98 5896.48 4839.98 5820.41ZM3751.31 5479.2 3828.06 5479.2 3828.06 6039.83 3751.31 6039.83ZM6986.09 5466.04C7050.78 5466.04 7099.94 5485.79 7133.56 5525.28 7167.19 5564.78 7184 5622.74 7184 5699.18L7184 6039.83 7060.65 6039.83 7060.65 5721.67C7060.65 5674.86 7051.79 5639.93 7034.06 5616.89 7016.33 5593.85 6989.56 5582.33 6953.75 5582.33 6915 5582.33 6886.04 5593.67 6866.85 5616.34 6847.66 5639.02 6838.07 5673.39 6838.07 5719.47L6838.07 6039.83 6715.27 6039.83 6715.27 5479.2 6838.07 5479.2 6838.07 5534.06C6855.61 5511.02 6876.72 5493.92 6901.39 5482.77 6926.06 5471.61 6954.29 5466.04 6986.09 5466.04ZM6373.06 5466.04C6424.96 5466.04 6469.73 5477.92 6507.37 5501.69 6545.02 5525.46 6574.07 5559.29 6594.54 5603.18 6615.01 5647.06 6625.24 5699.18 6625.24 5759.52 6625.24 5819.86 6615.01 5871.97 6594.54 5915.86 6574.07 5959.74 6545.02 5993.57 6507.37 6017.34 6469.73 6041.11 6424.96 6053 6373.06 6053 6294.85 6053 6233.26 6026.85 6188.31 5974.56 6143.35 5922.26 6120.88 5850.76 6120.88 5760.07 6120.88 5699.73 6131.11 5647.61 6151.58 5603.73 6172.04 5559.84 6201.19 5525.92 6239.02 5501.97 6276.85 5478.01 6321.53 5466.04 6373.06 5466.04ZM5601.37 5466.04C5641.21 5466.04 5678.03 5473.63 5711.84 5488.8 5745.64 5503.98 5774.79 5525.83 5799.28 5554.36L5717.59 5621.83C5684.33 5587.82 5644.86 5570.81 5599.18 5570.81 5574.69 5570.81 5555.14 5575.48 5540.52 5584.8 5525.9 5594.13 5518.59 5606.47 5518.59 5621.83 5518.59 5637.19 5527.09 5650.81 5544.08 5662.7 5561.08 5674.58 5592.42 5688.39 5638.1 5704.11 5679.77 5718.01 5713.85 5733.55 5740.35 5750.74 5766.84 5767.93 5786.21 5787.68 5798.46 5809.99 5810.7 5832.29 5816.82 5858.08 5816.82 5887.33 5816.82 5938.9 5798.09 5979.4 5760.63 6008.84 5723.17 6038.28 5671.73 6053 5606.3 6053 5564.27 6053 5523.89 6043.95 5485.15 6025.85 5446.41 6007.74 5415.34 5983.52 5391.95 5953.16L5474.18 5882.95C5493.55 5903.06 5515.3 5918.97 5539.42 5930.67 5563.54 5942.37 5587.12 5948.22 5610.14 5948.22 5639.38 5948.22 5662.04 5943.01 5678.12 5932.59 5694.2 5922.17 5702.24 5907.45 5702.24 5888.43 5702.24 5876.73 5698.59 5866.03 5691.28 5856.34 5683.97 5846.65 5671.18 5837.05 5652.9 5827.54 5634.63 5818.03 5609.41 5807.24 5577.25 5795.17 5514.39 5772.14 5469.8 5747.18 5443.48 5720.3 5417.17 5693.42 5404.01 5659.68 5404.01 5619.09 5404.01 5573.37 5422.28 5536.44 5458.83 5508.28 5495.38 5480.12 5542.89 5466.04 5601.37 5466.04ZM4197.71 5466.04C4263.13 5466.04 4311.74 5486.24 4343.53 5526.65 4375.33 5567.06 4391.23 5628.41 4391.23 5710.7L4391.23 6039.83 4314.48 6039.83 4314.48 5696.98C4314.48 5644.69 4303.51 5604.92 4281.58 5577.67 4259.65 5550.42 4227.86 5536.8 4186.19 5536.8 4140.14 5536.8 4105.24 5550.88 4081.48 5579.04 4057.73 5607.2 4045.85 5648.71 4045.85 5703.56L4045.85 6039.83 3969.1 6039.83 3969.1 5479.2 4045.85 5479.2 4045.85 5551.06C4061.56 5523.64 4082.49 5502.61 4108.62 5487.98 4134.75 5473.35 4164.45 5466.04 4197.71 5466.04ZM3403.66 5466.04C3453 5466.04 3495.58 5477.83 3531.4 5501.42 3567.22 5525.01 3594.72 5558.74 3613.91 5602.63 3633.09 5646.51 3642.69 5698.63 3642.69 5758.97 3642.69 5819.31 3633 5871.52 3613.63 5915.58 3594.26 5959.65 3566.67 5993.57 3530.85 6017.34 3495.03 6041.11 3452.64 6053 3403.66 6053 3329.84 6053 3271.54 6026.76 3228.78 5974.28 3186.02 5921.8 3164.64 5850.4 3164.64 5760.07 3164.64 5699.73 3174.32 5647.61 3193.69 5603.73 3213.06 5559.84 3240.66 5525.92 3276.47 5501.97 3312.29 5478.01 3354.69 5466.04 3403.66 5466.04ZM2907.51 5466.04C2952.47 5466.04 2990.93 5476.92 3022.91 5498.68 3054.89 5520.44 3078.19 5551.61 3092.81 5592.21L3019.9 5619.09C3010.4 5593.12 2995.96 5573.19 2976.59 5559.29 2957.22 5545.4 2934.56 5538.45 2908.61 5538.45 2860 5538.45 2823 5557.28 2797.59 5594.95 2772.19 5632.62 2759.49 5687.66 2759.49 5760.07 2759.49 5829.55 2772.1 5883.59 2797.32 5922.17 2822.54 5960.75 2857.99 5980.04 2903.68 5980.04 2933.65 5980.04 2959.41 5972 2980.97 5955.9 3002.54 5939.81 3017.52 5917.87 3025.93 5890.08L3098.29 5914.21C3085.5 5958.1 3061.84 5992.2 3027.3 6016.52 2992.76 6040.84 2951.01 6053 2902.03 6053 2855.98 6053 2816.32 6041.21 2783.07 6017.62 2749.81 5994.03 2724.31 5960.38 2706.59 5916.68 2688.86 5872.98 2680 5820.77 2680 5760.07 2680 5698.99 2689.14 5646.51 2707.41 5602.63 2725.69 5558.74 2751.82 5525.01 2785.81 5501.42 2819.8 5477.83 2860.37 5466.04 2907.51 5466.04ZM3789.14 5264.17C3803.76 5264.17 3815.91 5269.19 3825.6 5279.25 3835.28 5289.31 3840.12 5301.65 3840.12 5316.28 3840.12 5330.18 3835.28 5342.06 3825.6 5351.94 3815.91 5361.81 3803.76 5366.75 3789.14 5366.75 3775.25 5366.75 3763.46 5361.81 3753.78 5351.94 3744.09 5342.06 3739.25 5330.18 3739.25 5316.28 3739.25 5301.65 3744.09 5289.31 3753.78 5279.25 3763.46 5269.19 3775.25 5264.17 3789.14 5264.17ZM4677.77 5258.68C4700.06 5258.68 4720.62 5260.87 4739.45 5265.26 4758.27 5269.65 4776.45 5276.6 4793.99 5286.11L4793.99 5387.04C4778.64 5380.46 4764.48 5375.52 4751.51 5372.23 4738.53 5368.94 4726.01 5367.3 4713.95 5367.3 4698.6 5367.3 4687.27 5370.95 4679.96 5378.27 4672.65 5385.58 4669 5397.47 4669 5413.92L4669 5479.2 4793.99 5479.2 4793.99 5587.27 4669 5587.27 4669 6039.83 4546.2 6039.83 4546.2 5587.27 4465.06 5587.27 4465.06 5479.2 4546.2 5479.2 4546.2 5390.33C4546.2 5347.91 4557.53 5315.36 4580.19 5292.69 4602.85 5270.02 4635.37 5258.68 4677.77 5258.68ZM5969.49 5251C5990.69 5251 6008.32 5258.13 6022.39 5272.39 6036.46 5286.66 6043.5 5304.21 6043.5 5325.06 6043.5 5345.54 6036.37 5362.82 6022.12 5376.9 6007.86 5390.98 5990.32 5398.01 5969.49 5398.01 5949.39 5398.01 5932.21 5390.88 5917.96 5376.62 5903.7 5362.36 5896.57 5345.17 5896.57 5325.06 5896.57 5304.58 5903.61 5287.11 5917.68 5272.67 5931.75 5258.22 5949.02 5251 5969.49 5251Z" fill="#FFFFFF" fill-rule="evenodd"/><path d="M2745.99 6226.49C2737.85 6226.49 2729.74 6228.97 2721.66 6233.94 2713.57 6238.9 2707.39 6245.24 2703.1 6252.96L2703.1 6333.17C2707.83 6341.33 2714.04 6347.84 2721.74 6352.69 2729.44 6357.54 2737.69 6359.96 2746.49 6359.96 2761.12 6359.96 2772.39 6354.15 2780.31 6342.52 2788.23 6330.88 2792.19 6314.43 2792.19 6293.15 2792.19 6271.42 2788.26 6254.89 2780.39 6243.53 2772.53 6232.17 2761.06 6226.49 2745.99 6226.49ZM2893.79 6208.8 2916.89 6208.8 2961.11 6330.03C2962.21 6332.9 2963.17 6335.6 2963.99 6338.13 2964.82 6340.67 2965.67 6343.43 2966.55 6346.4 2967.43 6343.43 2968.31 6340.67 2969.19 6338.13 2970.07 6335.6 2971.01 6332.9 2972 6330.03L3016.71 6208.8 3040.3 6208.8 2953.35 6442 2930.09 6442 2955.5 6373.69ZM3906.8 6168.11 3906.8 6262.22 3968.01 6262.22C3980.33 6262.22 3990.11 6259.82 3997.37 6255.02 4004.63 6250.23 4009.8 6244.22 4012.88 6237 4015.96 6229.77 4017.5 6222.52 4017.5 6215.25 4017.5 6208.19 4016.1 6201.02 4013.29 6193.75 4010.49 6186.47 4005.49 6180.38 3998.28 6175.47 3991.08 6170.56 3980.99 6168.11 3968.01 6168.11ZM4869.21 6167.78 4869.21 6253.95 4933.72 6253.95C4945.49 6253.95 4954.78 6251.8 4961.6 6247.5 4968.42 6243.2 4973.29 6237.74 4976.2 6231.12 4979.12 6224.51 4980.57 6217.73 4980.57 6210.78 4980.57 6204.61 4979.22 6198.18 4976.53 6191.51 4973.84 6184.84 4969.11 6179.22 4962.34 6174.64 4955.58 6170.07 4946.04 6167.78 4933.72 6167.78ZM3511.52 6167.78 3511.52 6253.95 3576.03 6253.95C3587.8 6253.95 3597.09 6251.8 3603.91 6247.5 3610.73 6243.2 3615.6 6237.74 3618.51 6231.12 3621.43 6224.51 3622.89 6217.73 3622.89 6210.78 3622.89 6204.61 3621.54 6198.18 3618.84 6191.51 3616.15 6184.84 3611.42 6179.22 3604.66 6174.64 3597.89 6170.07 3588.35 6167.78 3576.03 6167.78ZM4846.11 6146.28 4933.22 6146.28C4951.15 6146.28 4965.26 6149.39 4975.54 6155.62 4985.82 6161.85 4993.14 6169.87 4997.48 6179.69 5001.83 6189.5 5004 6199.7 5004 6210.28 5004 6219.88 5002.1 6229.14 4998.31 6238.07 4994.51 6247 4988.49 6254.69 4980.24 6261.14 4971.99 6267.59 4961.21 6271.92 4947.91 6274.13L4998.72 6377.83 4972.65 6377.83 4923.49 6275.45 4869.21 6275.45 4869.21 6377.83 4846.11 6377.83ZM4605.51 6146.28 4737.17 6146.28 4737.17 6167.94 4628.6 6167.94 4628.6 6247.17 4700.7 6247.17 4700.7 6268.83 4628.6 6268.83 4628.6 6355.83 4744.42 6355.83 4744.42 6377.83 4605.51 6377.83ZM4357.26 6146.28 4508.55 6146.28 4508.55 6168.61 4444.37 6168.61 4444.37 6377.83 4421.27 6377.83 4421.27 6168.61 4357.26 6168.61ZM3883.7 6146.28 3966.69 6146.28C3985.27 6146.28 3999.96 6149.64 4010.74 6156.37 4021.52 6163.09 4029.19 6171.75 4033.75 6182.33 4038.32 6192.92 4040.6 6203.89 4040.6 6215.25 4040.6 6223.19 4039.28 6231.18 4036.64 6239.23 4034 6247.28 4029.74 6254.69 4023.85 6261.47 4017.97 6268.25 4010.35 6273.71 4001 6277.85 3991.65 6281.98 3980.22 6284.05 3966.69 6284.05L3906.8 6284.05 3906.8 6377.83 3883.7 6377.83ZM3749.65 6146.28 3772.75 6146.28 3772.75 6377.83 3749.65 6377.83ZM3488.42 6146.28 3575.54 6146.28C3593.46 6146.28 3607.57 6149.39 3617.85 6155.62 3628.14 6161.85 3635.45 6169.87 3639.8 6179.69 3644.14 6189.5 3646.31 6199.7 3646.31 6210.28 3646.31 6219.88 3644.42 6229.14 3640.62 6238.07 3636.83 6247 3630.81 6254.69 3622.56 6261.14 3614.31 6267.59 3603.53 6271.92 3590.22 6274.13L3641.03 6377.83 3614.97 6377.83 3565.8 6275.45 3511.52 6275.45 3511.52 6377.83 3488.42 6377.83ZM3240.18 6146.28 3391.47 6146.28 3391.47 6168.61 3327.29 6168.61 3327.29 6377.83 3304.19 6377.83 3304.19 6168.61 3240.18 6168.61ZM4193.71 6142.31C4205.03 6142.31 4215.15 6144.02 4224.06 6147.44 4232.97 6150.85 4240.4 6155.59 4246.34 6161.66 4252.27 6167.72 4256.46 6174.67 4258.87 6182.5L4237.26 6189.78C4234.18 6182.17 4228.82 6175.97 4221.18 6171.17 4213.53 6166.37 4203.82 6163.97 4192.06 6163.97 4178.86 6163.97 4168.49 6166.98 4160.96 6172.99 4153.42 6179 4149.65 6187.18 4149.65 6197.55 4149.65 6205.6 4152.13 6212.32 4157.08 6217.73 4162.03 6223.13 4168.49 6227.76 4176.46 6231.62 4184.44 6235.48 4192.88 6239.17 4201.79 6242.7 4209.6 6245.68 4217.49 6249.15 4225.47 6253.12 4233.44 6257.09 4240.73 6261.91 4247.33 6267.59 4253.92 6273.27 4259.26 6280.11 4263.33 6288.1 4267.4 6296.1 4269.43 6305.66 4269.43 6316.8 4269.43 6330.69 4266.27 6342.46 4259.95 6352.11 4253.62 6361.76 4244.96 6369.12 4233.96 6374.19 4222.96 6379.26 4210.42 6381.8 4196.35 6381.8 4183.48 6381.8 4171.82 6379.56 4161.37 6375.1 4150.92 6370.63 4142.04 6364.57 4134.72 6356.9 4127.41 6349.24 4121.99 6340.67 4118.47 6331.19L4140.75 6323.25C4145.7 6334.16 4153.06 6342.98 4162.85 6349.71 4172.64 6356.44 4184.03 6359.8 4197 6359.8 4211.63 6359.8 4223.38 6356.16 4232.23 6348.88 4241.08 6341.61 4245.51 6331.02 4245.51 6317.13 4245.51 6307.76 4242.98 6299.73 4237.92 6293.06 4232.86 6286.39 4226.26 6280.77 4218.12 6276.19 4209.98 6271.62 4201.29 6267.62 4192.06 6264.2 4184.14 6261.23 4176.25 6257.89 4168.38 6254.2 4160.52 6250.5 4153.37 6246.15 4146.93 6241.13 4140.5 6236.11 4135.36 6230.02 4131.51 6222.85 4127.66 6215.69 4125.73 6207.2 4125.73 6197.38 4125.73 6187.24 4128.4 6178.01 4133.73 6169.68 4139.07 6161.36 4146.8 6154.71 4156.91 6149.75 4167.03 6144.79 4179.3 6142.31 4193.71 6142.31ZM2703.1 6139 2703.1 6226.82C2708.49 6219.88 2715.14 6214.47 2723.06 6210.62 2730.98 6206.76 2739.34 6204.83 2748.14 6204.83 2762.11 6204.83 2774.15 6208.41 2784.27 6215.58 2794.39 6222.74 2802.23 6232.94 2807.78 6246.17 2813.33 6259.41 2816.11 6275.06 2816.11 6293.15 2816.11 6321.26 2810.28 6343.07 2798.62 6358.56 2786.96 6374.05 2770.58 6381.8 2749.46 6381.8 2740.11 6381.8 2731.78 6380.06 2724.46 6376.59 2717.15 6373.11 2710.03 6367.63 2703.1 6360.13L2703.1 6377.83 2680 6377.83 2680 6150.08Z" fill="#FFFFFF" fill-rule="evenodd"/></g></svg>